<svg xmlns="http://www.w3.org/2000/svg" width="307.625" height="234" viewBox="102.406 140 307.625 234">
  <defs>
    <style>
      .cls-1 {
        fill-rule: evenodd;
        fill: #000000;
      }
    </style>
  </defs>
  <path id="filled.svg" class="cls-1" d="M298.97,374H209c-6.479,0-4-7-4-7l14-33h69.973l14,33S305.7,374,298.97,374ZM102.4,323H410V156s1.531-16-17-16H119s-16.6-.437-16.6,16V323ZM237.082,200.189q-10.924-10.924-30.636-10.925h-25.9v84.508h23.41q21.328,0,32.687-11.07t11.358-31.993Q248.006,211.113,237.082,200.189Zm-8.324,56.444q-8.844,8.642-26.416,8.642H190.377V197.761h14.277q16.358,0,24.653,8.381t8.3,24.913Q237.6,247.993,228.758,256.633Zm102.253-67.369h-9.826v35.953H276.677V189.264H266.85v84.508h9.827V234h44.508v39.769h9.826V189.264Z"/>
</svg>
